HIERARCHY
ROOT Hips
{
	OFFSET	0.00	0.00	0.00
	CHANNELS 6 Xposition Yposition Zposition Zrotation Xrotation Yrotation
	JOINT LeftUpLeg
	{
		OFFSET	 0.126116	-0.014019	-0.065224
		CHANNELS 3 Zrotation Xrotation Yrotation
		JOINT LeftLeg
		{
			OFFSET	 0.000000	 0.000000	 0.569914
			CHANNELS 3 Zrotation Xrotation Yrotation
			JOINT LeftFoot
			{
				OFFSET	 0.000000	 0.000000	 0.544423
				CHANNELS 3 Zrotation Xrotation Yrotation
				JOINT LeftToeBase
				{
					OFFSET	 0.000000	 0.000000	 0.207117
					CHANNELS 3 Zrotation Xrotation Yrotation
					End Site
					{
						OFFSET	 0.000000	 0.000000	 0.207117
					}
				}
			}
		}
	}
	JOINT RightUpLeg
	{
		OFFSET	-0.124023	-0.008373	-0.065224
		CHANNELS 3 Zrotation Xrotation Yrotation
		JOINT RightLeg
		{
			OFFSET	 0.000000	 0.000000	 0.570047
			CHANNELS 3 Zrotation Xrotation Yrotation
			JOINT RightFoot
			{
				OFFSET	 0.000000	 0.000000	 0.544354
				CHANNELS 3 Zrotation Xrotation Yrotation
				JOINT RightToeBase
				{
					OFFSET	 0.000000	 0.000000	 0.207540
					CHANNELS 3 Zrotation Xrotation Yrotation
					End Site
					{
						OFFSET	 0.000000	 0.000000	 0.207540
					}
				}
			}
		}
	}
	JOINT Spine
	{
		OFFSET	 0.000184	-0.007763	 0.117403
		CHANNELS 3 Zrotation Xrotation Yrotation
		JOINT Spine1
		{
			OFFSET	 0.000000	 0.000000	 0.137269
			CHANNELS 3 Zrotation Xrotation Yrotation
			JOINT Spine2
			{
				OFFSET	 0.000000	 0.000000	 0.156879
				CHANNELS 3 Zrotation Xrotation Yrotation
				JOINT LeftShoulder
				{
					OFFSET	 0.080501	-0.002496	 0.160144
					CHANNELS 3 Zrotation Xrotation Yrotation
					JOINT LeftArm
					{
						OFFSET	 0.000000	 0.000000	 0.164363
						CHANNELS 3 Zrotation Xrotation Yrotation
						JOINT LeftForeArm
						{
							OFFSET	 0.000000	 0.000000	 0.364576
							CHANNELS 3 Zrotation Xrotation Yrotation
							JOINT LeftHand
							{
								OFFSET	 0.000000	 0.000000	 0.360812
								CHANNELS 3 Zrotation Xrotation Yrotation
								JOINT LeftHandIndex1
								{
									OFFSET	 0.000000	 0.000000	 0.086006
									CHANNELS 3 Zrotation Xrotation Yrotation
									JOINT LeftHandIndex2
									{
										OFFSET	 0.000000	 0.000000	 0.047237
										CHANNELS 3 Zrotation Xrotation Yrotation
										JOINT LeftHandIndex3
										{
											OFFSET	-0.004284	-0.000551	 0.038165
											CHANNELS 3 Zrotation Xrotation Yrotation
											End Site
											{
												OFFSET	-0.004284	-0.000551	 0.038165
											}
										}
									}
								}
							}
						}
					}
				}
				JOINT Neck
				{
					OFFSET	 0.000000	 0.000000	 0.176489
					CHANNELS 3 Zrotation Xrotation Yrotation
					JOINT Head
					{
						OFFSET	 0.000000	-0.001747	 0.077940
						CHANNELS 3 Zrotation Xrotation Yrotation
						End Site
						{
							OFFSET	 0.000000	-0.001747	 0.077940
						}
					}
				}
				JOINT RightShoulder
				{
					OFFSET	-0.080363	 0.000306	 0.159706
					CHANNELS 3 Zrotation Xrotation Yrotation
					JOINT RightArm
					{
						OFFSET	 0.000000	 0.000000	 0.164196
						CHANNELS 3 Zrotation Xrotation Yrotation
						JOINT RightForeArm
						{
							OFFSET	 0.000000	 0.000000	 0.365611
							CHANNELS 3 Zrotation Xrotation Yrotation
							JOINT RightHand
							{
								OFFSET	 0.000000	 0.000000	 0.360648
								CHANNELS 3 Zrotation Xrotation Yrotation
								JOINT RightHandIndex1
								{
									OFFSET	 0.000000	 0.000000	 0.069977
									CHANNELS 3 Zrotation Xrotation Yrotation
									JOINT RightHandIndex2
									{
										OFFSET	 0.000000	 0.000000	 0.052305
										CHANNELS 3 Zrotation Xrotation Yrotation
										JOINT RightHandIndex3
										{
											OFFSET	 0.009002	-0.000782	 0.042196
											CHANNELS 3 Zrotation Xrotation Yrotation
											End Site
											{
												OFFSET	 0.009002	-0.000782	 0.042196
											}
										}
									}
								}
							}
						}
					}
				}
			}
		}
	}
}
MOTION
Frames:    10
Frame Time: 0.03333334
-0.719801	-0.034719	 1.284455	 169.439800	-11.550150	-0.676043	 10.968410	 4.895517	 175.365200	-2.029919	-30.324950	-1.765540	-45.226100	 71.925380	 37.267310	-2.385833	 28.452760	 0.000004	-35.700330	-3.556317	-162.681400	 9.870936	-29.868990	 5.065064	 12.849700	 71.416870	-16.434000	 2.384659	 28.388700	-0.000001	 48.390690	 10.292400	-12.979250	 3.580060	 7.726023	-6.372462	 12.448160	-0.949719	 10.385840	-91.776180	 78.527400	-180.000000	-6.201754	 48.795220	-31.612170	-23.841390	 26.715830	-83.049020	-47.718770	-26.960810	-26.640020	-4.130354	 21.526190	 0.991307	-5.167926	 0.731697	 3.519349	-1.378229	 35.397820	-2.634230	 14.557910	 5.913110	-2.590022	 9.322783	-13.467700	-2.179522	 89.782100	 78.203870	 180.000000	-50.127750	 1.534704	 91.569300	 5.554522	 4.231713	 147.842800	 27.356490	 9.072902	-3.518943	 5.716295	 19.173350	-3.684826	 5.027458	 0.246833	-9.377971	-2.350882	 35.473990	 5.254307
-0.720134	-0.035129	 1.284205	 169.098200	-11.584740	-0.262910	 10.743960	 4.870293	 175.088900	-1.880734	-30.478520	-1.697749	-45.452400	 71.848550	 37.410520	-2.385833	 28.452760	 0.000004	-36.072240	-3.469641	-162.900500	 10.027290	-29.795540	 5.133375	 12.261640	 71.346150	-15.948310	 2.384659	 28.388700	-0.000001	 49.450410	 10.106900	-14.259750	 4.025909	 8.111202	-6.734952	 12.509580	-1.824470	 11.832200	-91.776170	 78.527400	 180.000000	-11.284140	 46.675660	-28.266610	-22.491440	 27.183030	-86.039790	-48.253050	-27.016730	-26.990400	-4.130354	 21.526190	 0.991307	-5.167926	 0.731697	 3.519349	-1.378229	 35.397820	-2.634230	 14.758250	 5.384988	-3.366482	 9.155863	-13.847620	-3.523564	 89.782050	 78.203870	-180.000000	-51.235720	 0.914631	 91.651300	 6.222166	 3.812448	 147.169000	 24.748250	 10.388860	-3.200677	 5.716295	 19.173350	-3.684826	 5.027458	 0.246833	-9.377971	-2.350882	 35.473990	 5.254307
-0.719964	-0.035597	 1.283816	 168.840400	-11.570760	-0.007392	 10.464410	 4.777190	 175.105100	-1.745954	-30.578620	-1.634052	-45.388170	 71.916850	 37.219780	-2.385833	 28.452760	 0.000004	-36.407480	-3.611050	-162.976300	 10.173970	-29.752280	 5.201256	 11.761650	 71.181270	-15.545720	 2.384659	 28.388700	-0.000001	 50.352170	 9.770428	-15.005280	 4.405010	 8.678818	-6.723652	 12.602970	-2.755877	 12.533460	-91.776210	 78.527400	-180.000000	-14.266840	 43.278950	-36.083120	-27.490800	 26.168280	-74.913760	-48.788860	-27.126670	-27.386770	-4.130354	 21.526190	 0.991307	-5.167926	 0.731697	 3.519349	-1.378229	 35.397820	-2.634230	 14.904740	 5.160615	-3.904764	 9.030852	-14.403150	-4.209233	 89.782100	 78.203870	 180.000000	-51.806600	 0.381649	 91.682760	 6.857611	 3.386462	 146.609500	 22.426410	 11.462090	-2.869312	 5.716295	 19.173350	-3.684826	 5.027458	 0.246833	-9.377971	-2.350882	 35.473990	 5.254307
-0.719288	-0.036119	 1.283214	 168.621800	-11.493770	 0.120867	 10.067030	 4.610970	 175.383000	-1.605586	-30.641260	-1.565365	-45.175690	 72.130990	 36.831220	-2.385833	 28.452760	 0.000004	-36.766110	-3.987867	-162.948400	 10.335520	-29.752620	 5.283499	 11.298650	 70.952980	-15.179030	 2.384659	 28.388700	-0.000001	 51.247350	 9.215387	-15.311770	 4.827171	 9.486019	-6.463827	 12.712450	-3.852087	 12.641660	-91.776220	 78.527360	-180.000000	-18.290360	 38.690320	-53.721950	-38.986550	 18.843390	-45.444210	-49.416420	-27.308560	-27.897030	-4.130354	 21.526190	 0.991307	-5.167926	 0.731697	 3.519349	-1.378229	 35.397820	-2.634230	 15.022910	 5.229006	-4.276251	 8.940567	-15.241820	-4.298363	 89.782070	 78.203900	-180.000000	-51.895370	-0.171102	 91.721190	 7.562646	 2.889563	 146.068400	 20.001650	 12.407190	-2.612062	 5.716295	 19.173350	-3.684826	 5.027458	 0.246833	-9.377971	-2.350882	 35.473990	 5.254307
-0.718767	-0.036440	 1.282831	 168.473300	-11.414690	 0.112292	 9.797236	 4.513142	 175.661200	-1.516816	-30.622890	-1.519190	-44.836990	 72.268370	 36.365800	-2.385833	 28.452760	 0.000004	-36.971130	-4.325429	-162.880300	 10.442370	-29.793790	 5.344620	 11.035850	 70.842740	-14.971690	 2.384659	 28.388700	-0.000001	 51.863740	 8.785047	-15.407850	 5.127914	 10.064110	-6.204601	 12.777010	-4.599673	 12.605260	-91.776160	 78.527380	 180.000000	-25.838600	 35.240180	-73.300970	-46.013280	 0.767936	-6.153141	-49.836170	-27.421880	-28.214380	-4.130354	 21.526190	 0.991307	-5.167926	 0.731697	 3.519349	-1.378229	 35.397820	-2.634230	 15.081090	 5.369363	-4.489575	 8.899729	-15.888300	-4.275514	 89.782060	 78.203890	-180.000000	-51.689480	-0.553644	 91.822110	 8.102185	 2.496267	 145.675100	 18.331130	 13.014410	-2.507654	 5.716295	 19.173350	-3.684826	 5.027458	 0.246833	-9.377971	-2.350882	 35.473990	 5.254307
-0.718139	-0.036695	 1.282430	 168.284600	-11.292150	 0.016497	 9.445191	 4.454345	 176.009600	-1.412814	-30.522650	-1.461792	-44.448830	 72.393230	 35.840340	-2.385833	 28.452760	 0.000004	-37.199970	-4.757021	-162.789800	 10.575390	-29.911580	 5.431775	 10.787180	 70.844340	-14.765360	 2.384659	 28.388700	-0.000001	 52.671960	 8.192458	-15.464460	 5.577781	 10.697490	-5.964748	 12.831280	-5.433732	 12.542470	-91.776150	 78.527380	 180.000000	-27.134810	 34.808430	-76.105100	-45.982650	 0.723442	-5.964039	-50.350510	-27.553090	-28.577780	-4.130354	 21.526190	 0.991307	-5.167926	 0.731697	 3.519349	-1.378229	 35.397820	-2.634230	 15.132620	 5.633125	-4.716573	 8.870359	-16.762060	-4.166596	 89.782160	 78.203900	 179.999900	-51.106560	-1.036901	 92.130360	 8.828870	 1.956760	 145.092400	 16.306650	 13.629300	-2.610662	 5.716295	 19.173350	-3.684826	 5.027458	 0.246833	-9.377971	-2.350882	 35.473990	 5.254307
-0.717499	-0.036884	 1.282125	 168.075900	-11.154210	-0.088816	 9.055006	 4.432625	 176.296600	-1.297183	-30.364190	-1.396370	-44.162660	 72.431900	 35.442160	-2.385833	 28.452760	 0.000004	-37.436610	-5.174084	-162.750800	 10.724690	-30.100150	 5.539577	 10.474790	 70.955810	-14.469550	 2.384659	 28.388700	-0.000001	 53.578900	 7.533033	-15.535500	 6.136546	 11.231150	-5.826081	 12.863670	-6.191625	 12.564050	-91.776140	 78.527350	 180.000000	-29.231540	 34.257950	-77.783160	-45.926940	 0.684407	-5.776830	-50.803930	-27.654490	-28.841200	-4.130354	 21.526190	 0.991307	-5.167926	 0.731697	 3.519349	-1.378229	 35.397820	-2.634230	 15.160920	 5.818826	-4.930324	 8.833892	-17.585010	-4.149423	 89.782130	 78.203900	 180.000000	-50.230660	-1.383847	 92.745940	 9.630421	 1.342266	 144.415600	 14.393320	 14.165020	-3.048276	 5.716295	 19.173350	-3.684826	 5.027458	 0.246833	-9.377971	-2.350882	 35.473990	 5.254307
-0.717086	-0.036986	 1.281974	 167.855900	-11.012310	-0.181799	 8.648258	 4.439733	 176.539900	-1.173520	-30.185830	-1.326686	-43.944440	 72.421170	 35.124570	-2.385833	 28.452760	 0.000004	-37.668660	-5.541066	-162.737100	 10.877770	-30.278270	 5.648397	 10.091330	 71.089300	-14.091670	 2.384659	 28.388700	-0.000001	 54.526790	 6.868969	-15.665690	 6.738818	 11.702980	-5.785504	 12.888020	-6.885275	 12.701560	-91.776200	 78.527350	-180.000000	-31.546150	 33.685570	-78.896100	-45.841520	 0.646975	-5.587499	-51.147270	-27.714070	-28.958050	-4.130354	 21.526190	 0.991307	-5.167926	 0.731697	 3.519349	-1.378229	 35.397820	-2.634230	 15.155860	 5.891383	-5.115021	 8.787024	-18.297830	-4.255628	 89.782110	 78.203900	 180.000000	-49.217160	-1.639035	 93.511950	 10.487670	 0.659460	 143.624500	 12.554020	 14.818630	-3.594426	 5.716295	 19.173350	-3.684826	 5.027458	 0.246833	-9.377971	-2.350882	 35.473990	 5.254307
-0.717149	-0.036909	 1.281975	 167.642500	-10.906440	-0.189580	 8.162269	 4.495523	 176.727900	-1.029396	-30.055290	-1.249190	-44.187170	 72.534240	 35.237710	-2.385833	 28.452760	 0.000004	-37.961870	-5.755359	-162.729000	 11.021080	-30.319650	 5.729764	 9.832553	 71.139510	-13.866790	 2.384659	 28.388700	-0.000001	 55.464940	 6.226742	-15.854390	 7.388165	 12.147730	-5.993543	 12.900900	-7.464945	 12.886870	-91.776190	 78.527430	-180.000000	-33.799850	 33.332670	-79.680210	-45.708950	 0.610592	-5.392817	-51.505750	-27.821030	-29.091330	-4.130354	 21.526190	 0.991307	-5.167926	 0.731697	 3.519349	-1.378229	 35.397820	-2.634230	 15.095760	 5.777156	-5.189002	 8.714519	-18.737820	-4.379774	 89.782100	 78.203850	-180.000000	-48.182410	-1.940385	 94.278770	 11.330000	-0.038497	 142.635500	 10.690940	 15.539370	-4.075681	 5.716295	 19.173350	-3.684826	 5.027458	 0.246833	-9.377971	-2.350882	 35.473990	 5.254307
-0.718649	-0.036310	 1.282445	 167.315800	-10.834520	-0.025043	 7.254950	 4.769084	 176.909000	-0.766375	-29.942820	-1.113476	-45.638720	 72.978100	 36.430470	-2.385833	 28.452760	 0.000004	-38.559600	-5.665038	-162.659500	 11.212280	-29.977790	 5.769990	 9.775842	 71.003260	-13.940880	 2.384659	 28.388700	-0.000001	 56.918510	 5.340436	-16.365690	 8.495911	 12.746700	-6.920774	 12.903210	-8.139766	 13.368810	-91.776220	 78.527380	-180.000000	-37.836810	 33.086690	-79.833370	-45.402250	 0.557058	-5.077838	-52.079710	-28.072570	-29.302600	-4.130354	 21.526190	 0.991307	-5.167926	 0.731697	 3.519349	-1.378229	 35.397820	-2.634230	 14.885200	 5.276282	-5.085709	 8.544503	-18.970630	-4.640055	 89.782090	 78.203850	-180.000000	-46.605430	-2.703809	 95.350930	 12.616680	-1.198360	 140.626900	 7.494786	 16.845170	-4.495708	 5.716295	 19.173350	-3.684826	 5.027458	 0.246833	-9.377971	-2.350882	 35.473990	 5.254307
